<svg xmlns="http://www.w3.org/2000/svg" width="24" height="24" viewBox="0 0 24 24">
  <g id="search" transform="translate(-144 -239)">
    <rect id="Rectangle_764" data-name="Rectangle 764" width="24" height="24" transform="translate(144 239)" fill="none"/>
    <g id="noun-search-781983" transform="translate(46 212.655)">
      <path id="Path_168" data-name="Path 168" d="M107.718,45.9a9.6,9.6,0,0,0,5.62-1.811l.58-.415,5.785,5.838a.93.93,0,0,0,1.3-1.327h0l-5.777-5.83.406-.574a9.7,9.7,0,1,0-7.915,4.12Zm0-17.693A7.912,7.912,0,0,1,114.134,40.7l-.774,1.094-1.088.778a7.784,7.784,0,0,1-4.554,1.469,7.915,7.915,0,0,1,0-15.83Z" transform="translate(0)" fill="#383838"/>
    </g>
  </g>
</svg>
