<?xml version="1.0" encoding="utf-8"?>
<!-- Generator: Adobe Illustrator 24.3.0, SVG Export Plug-In . SVG Version: 6.00 Build 0)  -->
<svg version="1.1" id="Layer_1" xmlns="http://www.w3.org/2000/svg" xmlns:xlink="http://www.w3.org/1999/xlink" x="0px" y="0px"
	 viewBox="0 0 200 200" style="enable-background:new 0 0 200 200;" xml:space="preserve">
<style type="text/css">
	.st0{fill:#737373;}
</style>
<g>
	<g>
		<path class="st0" d="M160.31,55.32c4.68,4.72,9.42,9.18,13.81,13.97c6.21,6.78,11.12,14.49,15.26,22.7
			c1.07,2.13,1.16,4.22-0.11,6.26c-14.6,23.51-33.52,42.15-59.98,51.83c-20.2,7.39-40.52,6.96-60.64-0.67
			c-1.39-0.53-2.18-0.38-3.23,0.67c-8.91,9-17.89,17.93-26.83,26.9c-1.81,1.82-3.85,2.74-6.44,2.06c-4.2-1.11-5.87-6-3.21-9.42
			c0.34-0.44,0.76-0.83,1.16-1.23c47.64-47.66,95.29-95.31,142.94-142.97c0.22-0.22,0.44-0.45,0.67-0.66
			c2.66-2.55,6.3-2.62,8.73-0.16c2.42,2.44,2.34,6.07-0.24,8.73c-1.83,1.89-3.72,3.73-5.58,5.59c-5.05,5.05-10.11,10.11-15.16,15.16
			C161,54.57,160.55,55.07,160.31,55.32z M86.93,128.65c12.58,5.52,28.84,1.68,38.85-8.96c10.21-10.85,12.78-26,7.68-37.51
			c-3.14,3.13-6.26,6.19-9.3,9.31c-0.3,0.31-0.25,1.05-0.22,1.57c1.02,15.05-10.96,27-26.1,26.03c-0.56-0.04-1.33,0.05-1.69,0.4
			C93.09,122.44,90.11,125.47,86.93,128.65z"/>
		<path class="st0" d="M138.55,42.95c-5.47,5.48-10.92,10.93-16.37,16.38c-1.37,1.37-2.58,3.46-4.21,3.87
			c-1.45,0.37-3.37-1.14-5.09-1.8c-24.23-9.3-50.18,9.4-49.01,35.35c0.24,5.26,1.56,10.26,4.02,14.93c0.41,0.78,0.64,1.36-0.14,2.13
			c-7.51,7.47-14.98,14.98-22.64,22.65c-1.47-1.15-2.89-2.23-4.28-3.36c-11.99-9.73-21.98-21.2-30.01-34.39
			c-1.4-2.3-1.65-4.58-0.21-6.9C24.16,69.84,41.7,52.17,65.73,41.93c23.89-10.17,47.95-9.18,71.85,0.34
			c0.23,0.09,0.45,0.21,0.67,0.32C138.3,42.62,138.33,42.69,138.55,42.95z"/>
		<path class="st0" d="M108.26,72.7c-10.22,10.22-20.47,20.47-30.69,30.68c-3.83-6.7-1.5-18.35,5.19-25.19
			C89.49,71.31,101.18,68.86,108.26,72.7z"/>
	</g>
</g>
</svg>
