<svg xmlns="http://www.w3.org/2000/svg" width="16" height="16.838" viewBox="0 0 16 16.838">
  <g id="ic-search" transform="translate(-0.457 -0.143)">
    <path id="Shape" d="M15.383,16.838h0a.614.614,0,0,1-.42-.165L11.1,12.806A7,7,0,0,1,7.05,14.089a7.109,7.109,0,0,1-3.066-.7,7.048,7.048,0,0,1-3.944-7.1,7.044,7.044,0,1,1,12,5.715l3.793,3.773v.02a.616.616,0,0,1-.451,1.036Zm-8.3-15.5a5.747,5.747,0,0,0-4.064,9.81A5.747,5.747,0,0,0,11.15,3.02,5.709,5.709,0,0,0,7.086,1.337Z" transform="translate(0.457 0.143)" fill="#949cae"/>
  </g>
</svg>
